<svg width="180" height="180" version="1.1" xmlns="http://www.w3.org/2000/svg">

  <!-- <rect x="10" y="10" width="30" height="30" stroke="black" fill="transparent" stroke-width="5"/>
  <rect x="60" y="10" rx="10" ry="10" width="30" height="30" stroke="black" fill="transparent" stroke-width="5"/>

  
  <ellipse cx="75" cy="75" rx="20" ry="5" stroke="red" fill="transparent" stroke-width="5"/>

  <line x1="10" x2="50" y1="110" y2="150" stroke="orange" stroke-width="5"/>
  <polyline points="60 110 65 120 70 115 75 130 80 125 85 140 90 135 95 150 100 145"
      stroke="orange" fill="transparent" stroke-width="5"/>

  <polygon points="50 160 55 180 70 180 60 190 65 205 50 195 35 205 40 190 30 180 45 180"
      stroke="green" fill="transparent" stroke-width="5"/> -->

  <path  d="M190,7 Q41,2 130,30 T49,136" fill="none" stroke="white" stroke-width="10"/>
  <path  d="M5,50 Q100,1 40,50 T139,116" fill="none" stroke="white" stroke-width="10"/>
   <polyline points="99 110 110 160"
      stroke="white" fill="transparent" stroke-width="20"/>

 <!-- <circle cx="90" cy="90" r="85" stroke="white" fill="transparent" stroke-width="6"/> -->
 <path d="M60,90 a1,1 0 0,0 120,0" fill="transparent" stroke="white" stroke-width='6'/>
           </svg>